<mxfile host="app.diagrams.net" modified="2023-09-04T14:35:17.812Z" agent="Mozilla/5.0 (Windows NT 10.0; Win64; x64) AppleWebKit/537.36 (KHTML, like Gecko) Chrome/116.0.0.0 Safari/537.36 Edg/116.0.1938.69" etag="ZrGIjSQwe_7B9E6cGTYw" version="21.6.9" type="device">
  <diagram name="Page-1" id="oBMIIJ_97IDFcW-WtK7P">
    <mxGraphModel dx="600" dy="309" grid="1" gridSize="10" guides="1" tooltips="1" connect="1" arrows="1" fold="1" page="1" pageScale="1" pageWidth="850" pageHeight="1100" math="0" shadow="0">
      <root>
        <mxCell id="0" />
        <mxCell id="1" parent="0" />
        <mxCell id="NHP7XcA1WJqKf3ddE5h1-9" value="" style="edgeStyle=orthogonalEdgeStyle;rounded=0;orthogonalLoop=1;jettySize=auto;html=1;" edge="1" parent="1" source="NHP7XcA1WJqKf3ddE5h1-2" target="NHP7XcA1WJqKf3ddE5h1-5">
          <mxGeometry relative="1" as="geometry" />
        </mxCell>
        <mxCell id="NHP7XcA1WJqKf3ddE5h1-2" value="" style="ellipse;whiteSpace=wrap;html=1;aspect=fixed;" vertex="1" parent="1">
          <mxGeometry x="170" y="200" width="20" height="20" as="geometry" />
        </mxCell>
        <mxCell id="NHP7XcA1WJqKf3ddE5h1-3" value="" style="endArrow=none;html=1;rounded=0;entryX=0;entryY=0;entryDx=0;entryDy=0;exitX=1;exitY=1;exitDx=0;exitDy=0;" edge="1" parent="1" source="NHP7XcA1WJqKf3ddE5h1-2" target="NHP7XcA1WJqKf3ddE5h1-2">
          <mxGeometry width="50" height="50" relative="1" as="geometry">
            <mxPoint x="270" y="220" as="sourcePoint" />
            <mxPoint x="320" y="170" as="targetPoint" />
          </mxGeometry>
        </mxCell>
        <mxCell id="NHP7XcA1WJqKf3ddE5h1-4" value="" style="endArrow=none;html=1;rounded=0;entryX=1;entryY=0;entryDx=0;entryDy=0;exitX=0;exitY=1;exitDx=0;exitDy=0;" edge="1" parent="1" source="NHP7XcA1WJqKf3ddE5h1-2" target="NHP7XcA1WJqKf3ddE5h1-2">
          <mxGeometry width="50" height="50" relative="1" as="geometry">
            <mxPoint x="190" y="240" as="sourcePoint" />
            <mxPoint x="240" y="190" as="targetPoint" />
          </mxGeometry>
        </mxCell>
        <mxCell id="NHP7XcA1WJqKf3ddE5h1-12" value="" style="edgeStyle=orthogonalEdgeStyle;rounded=0;orthogonalLoop=1;jettySize=auto;html=1;" edge="1" parent="1" source="NHP7XcA1WJqKf3ddE5h1-5" target="NHP7XcA1WJqKf3ddE5h1-6">
          <mxGeometry relative="1" as="geometry" />
        </mxCell>
        <mxCell id="NHP7XcA1WJqKf3ddE5h1-5" value="Controller" style="rounded=0;whiteSpace=wrap;html=1;" vertex="1" parent="1">
          <mxGeometry x="250" y="195" width="80" height="30" as="geometry" />
        </mxCell>
        <mxCell id="NHP7XcA1WJqKf3ddE5h1-6" value="LEDs, Motors" style="rounded=0;whiteSpace=wrap;html=1;" vertex="1" parent="1">
          <mxGeometry x="370" y="190" width="80" height="40" as="geometry" />
        </mxCell>
        <mxCell id="NHP7XcA1WJqKf3ddE5h1-14" style="edgeStyle=orthogonalEdgeStyle;rounded=0;orthogonalLoop=1;jettySize=auto;html=1;exitX=1;exitY=0.5;exitDx=0;exitDy=0;" edge="1" parent="1" source="NHP7XcA1WJqKf3ddE5h1-30">
          <mxGeometry relative="1" as="geometry">
            <mxPoint x="640" y="210" as="targetPoint" />
            <mxPoint x="570" y="210.02857142857135" as="sourcePoint" />
          </mxGeometry>
        </mxCell>
        <mxCell id="NHP7XcA1WJqKf3ddE5h1-10" value="Sensors" style="rounded=0;whiteSpace=wrap;html=1;" vertex="1" parent="1">
          <mxGeometry x="320" y="270" width="80" height="30" as="geometry" />
        </mxCell>
        <mxCell id="NHP7XcA1WJqKf3ddE5h1-18" value="" style="endArrow=classic;html=1;rounded=0;entryX=1;entryY=0.5;entryDx=0;entryDy=0;" edge="1" parent="1" target="NHP7XcA1WJqKf3ddE5h1-10">
          <mxGeometry width="50" height="50" relative="1" as="geometry">
            <mxPoint x="610" y="210" as="sourcePoint" />
            <mxPoint x="450" y="250" as="targetPoint" />
            <Array as="points">
              <mxPoint x="610" y="285" />
            </Array>
          </mxGeometry>
        </mxCell>
        <mxCell id="NHP7XcA1WJqKf3ddE5h1-20" value="" style="endArrow=classic;html=1;rounded=0;entryX=0.5;entryY=1;entryDx=0;entryDy=0;exitX=0;exitY=0.5;exitDx=0;exitDy=0;" edge="1" parent="1" source="NHP7XcA1WJqKf3ddE5h1-10" target="NHP7XcA1WJqKf3ddE5h1-2">
          <mxGeometry width="50" height="50" relative="1" as="geometry">
            <mxPoint x="310" y="285" as="sourcePoint" />
            <mxPoint x="280" y="250" as="targetPoint" />
            <Array as="points">
              <mxPoint x="180" y="285" />
            </Array>
          </mxGeometry>
        </mxCell>
        <mxCell id="NHP7XcA1WJqKf3ddE5h1-21" value="" style="endArrow=classic;html=1;rounded=0;entryX=0;entryY=0.5;entryDx=0;entryDy=0;" edge="1" parent="1" target="NHP7XcA1WJqKf3ddE5h1-2">
          <mxGeometry width="50" height="50" relative="1" as="geometry">
            <mxPoint x="110" y="210" as="sourcePoint" />
            <mxPoint x="120" y="200" as="targetPoint" />
          </mxGeometry>
        </mxCell>
        <mxCell id="NHP7XcA1WJqKf3ddE5h1-22" value="Input" style="text;html=1;strokeColor=none;fillColor=none;align=center;verticalAlign=middle;whiteSpace=wrap;rounded=0;" vertex="1" parent="1">
          <mxGeometry x="110" y="180" width="60" height="30" as="geometry" />
        </mxCell>
        <mxCell id="NHP7XcA1WJqKf3ddE5h1-23" value="Output" style="text;html=1;strokeColor=none;fillColor=none;align=center;verticalAlign=middle;whiteSpace=wrap;rounded=0;" vertex="1" parent="1">
          <mxGeometry x="600" y="180" width="60" height="30" as="geometry" />
        </mxCell>
        <mxCell id="NHP7XcA1WJqKf3ddE5h1-24" value="+" style="text;html=1;strokeColor=none;fillColor=none;align=center;verticalAlign=middle;whiteSpace=wrap;rounded=0;" vertex="1" parent="1">
          <mxGeometry x="160" y="215" width="10" height="10" as="geometry" />
        </mxCell>
        <mxCell id="NHP7XcA1WJqKf3ddE5h1-25" value="-" style="text;html=1;strokeColor=none;fillColor=none;align=center;verticalAlign=middle;whiteSpace=wrap;rounded=0;" vertex="1" parent="1">
          <mxGeometry x="170" y="225" width="10" height="10" as="geometry" />
        </mxCell>
        <mxCell id="NHP7XcA1WJqKf3ddE5h1-26" value="Feedback Signal" style="text;html=1;strokeColor=none;fillColor=none;align=center;verticalAlign=middle;whiteSpace=wrap;rounded=0;" vertex="1" parent="1">
          <mxGeometry x="190" y="290" width="80" height="30" as="geometry" />
        </mxCell>
        <mxCell id="NHP7XcA1WJqKf3ddE5h1-28" value="Error" style="text;html=1;strokeColor=none;fillColor=none;align=center;verticalAlign=middle;whiteSpace=wrap;rounded=0;" vertex="1" parent="1">
          <mxGeometry x="170" y="180" width="80" height="30" as="geometry" />
        </mxCell>
        <mxCell id="NHP7XcA1WJqKf3ddE5h1-31" value="" style="edgeStyle=orthogonalEdgeStyle;rounded=0;orthogonalLoop=1;jettySize=auto;html=1;exitX=1;exitY=0.5;exitDx=0;exitDy=0;" edge="1" parent="1" source="NHP7XcA1WJqKf3ddE5h1-6" target="NHP7XcA1WJqKf3ddE5h1-30">
          <mxGeometry relative="1" as="geometry">
            <mxPoint x="640" y="210" as="targetPoint" />
            <mxPoint x="465" y="210" as="sourcePoint" />
          </mxGeometry>
        </mxCell>
        <mxCell id="NHP7XcA1WJqKf3ddE5h1-30" value="LCD Display" style="rounded=0;whiteSpace=wrap;html=1;" vertex="1" parent="1">
          <mxGeometry x="500" y="190" width="80" height="40" as="geometry" />
        </mxCell>
        <mxCell id="NHP7XcA1WJqKf3ddE5h1-50" value="" style="edgeStyle=orthogonalEdgeStyle;rounded=0;orthogonalLoop=1;jettySize=auto;html=1;" edge="1" parent="1" source="NHP7XcA1WJqKf3ddE5h1-51" target="NHP7XcA1WJqKf3ddE5h1-55">
          <mxGeometry relative="1" as="geometry" />
        </mxCell>
        <mxCell id="NHP7XcA1WJqKf3ddE5h1-51" value="" style="ellipse;whiteSpace=wrap;html=1;aspect=fixed;" vertex="1" parent="1">
          <mxGeometry x="200" y="410" width="20" height="20" as="geometry" />
        </mxCell>
        <mxCell id="NHP7XcA1WJqKf3ddE5h1-52" value="" style="endArrow=none;html=1;rounded=0;entryX=0;entryY=0;entryDx=0;entryDy=0;exitX=1;exitY=1;exitDx=0;exitDy=0;" edge="1" parent="1" source="NHP7XcA1WJqKf3ddE5h1-51" target="NHP7XcA1WJqKf3ddE5h1-51">
          <mxGeometry width="50" height="50" relative="1" as="geometry">
            <mxPoint x="300" y="430" as="sourcePoint" />
            <mxPoint x="350" y="380" as="targetPoint" />
          </mxGeometry>
        </mxCell>
        <mxCell id="NHP7XcA1WJqKf3ddE5h1-53" value="" style="endArrow=none;html=1;rounded=0;entryX=1;entryY=0;entryDx=0;entryDy=0;exitX=0;exitY=1;exitDx=0;exitDy=0;" edge="1" parent="1" source="NHP7XcA1WJqKf3ddE5h1-51" target="NHP7XcA1WJqKf3ddE5h1-51">
          <mxGeometry width="50" height="50" relative="1" as="geometry">
            <mxPoint x="220" y="450" as="sourcePoint" />
            <mxPoint x="270" y="400" as="targetPoint" />
          </mxGeometry>
        </mxCell>
        <mxCell id="NHP7XcA1WJqKf3ddE5h1-54" value="" style="edgeStyle=orthogonalEdgeStyle;rounded=0;orthogonalLoop=1;jettySize=auto;html=1;" edge="1" parent="1" source="NHP7XcA1WJqKf3ddE5h1-55" target="NHP7XcA1WJqKf3ddE5h1-56">
          <mxGeometry relative="1" as="geometry" />
        </mxCell>
        <mxCell id="NHP7XcA1WJqKf3ddE5h1-55" value="MCU" style="rounded=0;whiteSpace=wrap;html=1;" vertex="1" parent="1">
          <mxGeometry x="270" y="405" width="80" height="30" as="geometry" />
        </mxCell>
        <mxCell id="NHP7XcA1WJqKf3ddE5h1-56" value="Actuator" style="rounded=0;whiteSpace=wrap;html=1;" vertex="1" parent="1">
          <mxGeometry x="400" y="400" width="80" height="40" as="geometry" />
        </mxCell>
        <mxCell id="NHP7XcA1WJqKf3ddE5h1-57" style="edgeStyle=orthogonalEdgeStyle;rounded=0;orthogonalLoop=1;jettySize=auto;html=1;exitX=1;exitY=0.5;exitDx=0;exitDy=0;" edge="1" parent="1" source="NHP7XcA1WJqKf3ddE5h1-56">
          <mxGeometry relative="1" as="geometry">
            <mxPoint x="600" y="420" as="targetPoint" />
            <mxPoint x="600" y="420" as="sourcePoint" />
          </mxGeometry>
        </mxCell>
        <mxCell id="NHP7XcA1WJqKf3ddE5h1-58" value="Sensors" style="rounded=0;whiteSpace=wrap;html=1;" vertex="1" parent="1">
          <mxGeometry x="350" y="480" width="80" height="30" as="geometry" />
        </mxCell>
        <mxCell id="NHP7XcA1WJqKf3ddE5h1-59" value="" style="endArrow=classic;html=1;rounded=0;entryX=1;entryY=0.5;entryDx=0;entryDy=0;" edge="1" parent="1" target="NHP7XcA1WJqKf3ddE5h1-58">
          <mxGeometry width="50" height="50" relative="1" as="geometry">
            <mxPoint x="550" y="420" as="sourcePoint" />
            <mxPoint x="480" y="460" as="targetPoint" />
            <Array as="points">
              <mxPoint x="550" y="495" />
            </Array>
          </mxGeometry>
        </mxCell>
        <mxCell id="NHP7XcA1WJqKf3ddE5h1-60" value="" style="endArrow=classic;html=1;rounded=0;entryX=0.5;entryY=1;entryDx=0;entryDy=0;exitX=0;exitY=0.5;exitDx=0;exitDy=0;" edge="1" parent="1" source="NHP7XcA1WJqKf3ddE5h1-58" target="NHP7XcA1WJqKf3ddE5h1-51">
          <mxGeometry width="50" height="50" relative="1" as="geometry">
            <mxPoint x="340" y="495" as="sourcePoint" />
            <mxPoint x="310" y="460" as="targetPoint" />
            <Array as="points">
              <mxPoint x="210" y="495" />
            </Array>
          </mxGeometry>
        </mxCell>
        <mxCell id="NHP7XcA1WJqKf3ddE5h1-61" value="" style="endArrow=classic;html=1;rounded=0;entryX=0;entryY=0.5;entryDx=0;entryDy=0;" edge="1" parent="1" target="NHP7XcA1WJqKf3ddE5h1-51">
          <mxGeometry width="50" height="50" relative="1" as="geometry">
            <mxPoint x="140" y="420" as="sourcePoint" />
            <mxPoint x="150" y="410" as="targetPoint" />
          </mxGeometry>
        </mxCell>
        <mxCell id="NHP7XcA1WJqKf3ddE5h1-62" value="Input" style="text;html=1;strokeColor=none;fillColor=none;align=center;verticalAlign=middle;whiteSpace=wrap;rounded=0;" vertex="1" parent="1">
          <mxGeometry x="140" y="390" width="60" height="30" as="geometry" />
        </mxCell>
        <mxCell id="NHP7XcA1WJqKf3ddE5h1-63" value="Output" style="text;html=1;strokeColor=none;fillColor=none;align=center;verticalAlign=middle;whiteSpace=wrap;rounded=0;" vertex="1" parent="1">
          <mxGeometry x="530" y="390" width="60" height="30" as="geometry" />
        </mxCell>
        <mxCell id="NHP7XcA1WJqKf3ddE5h1-64" value="+" style="text;html=1;strokeColor=none;fillColor=none;align=center;verticalAlign=middle;whiteSpace=wrap;rounded=0;" vertex="1" parent="1">
          <mxGeometry x="190" y="425" width="10" height="10" as="geometry" />
        </mxCell>
        <mxCell id="NHP7XcA1WJqKf3ddE5h1-65" value="-" style="text;html=1;strokeColor=none;fillColor=none;align=center;verticalAlign=middle;whiteSpace=wrap;rounded=0;" vertex="1" parent="1">
          <mxGeometry x="200" y="435" width="10" height="10" as="geometry" />
        </mxCell>
        <mxCell id="NHP7XcA1WJqKf3ddE5h1-66" value="Feedback Signal" style="text;html=1;strokeColor=none;fillColor=none;align=center;verticalAlign=middle;whiteSpace=wrap;rounded=0;" vertex="1" parent="1">
          <mxGeometry x="220" y="500" width="80" height="30" as="geometry" />
        </mxCell>
        <mxCell id="NHP7XcA1WJqKf3ddE5h1-67" value="Error" style="text;html=1;strokeColor=none;fillColor=none;align=center;verticalAlign=middle;whiteSpace=wrap;rounded=0;" vertex="1" parent="1">
          <mxGeometry x="200" y="390" width="80" height="30" as="geometry" />
        </mxCell>
      </root>
    </mxGraphModel>
  </diagram>
</mxfile>
